<svg width="420" height="252" viewBox="0 0 420 252" xmlns="http://www.w3.org/2000/svg"><rect width="420" height="252" rx="6" fill="#0d1117" stroke="#30363d"/><text x="25" y="32" fill="#58a6ff" font-size="16" font-weight="600">Most Used Languages</text><text x="25" y="55" fill="#c9d1d9" font-size="12">JavaScript</text><text x="375" y="55" fill="#8b949e" font-size="12" text-anchor="end">39.9%</text><rect x="25" y="61" width="350" height="8" rx="4" fill="#21262d"/><rect x="25" y="61" width="139.7" height="8" rx="4" fill="#f1e05a"/><text x="25" y="87" fill="#c9d1d9" font-size="12">PHP</text><text x="375" y="87" fill="#8b949e" font-size="12" text-anchor="end">23.3%</text><rect x="25" y="93" width="350" height="8" rx="4" fill="#21262d"/><rect x="25" y="93" width="81.5" height="8" rx="4" fill="#4F5D95"/><text x="25" y="119" fill="#c9d1d9" font-size="12">Blade</text><text x="375" y="119" fill="#8b949e" font-size="12" text-anchor="end">20.0%</text><rect x="25" y="125" width="350" height="8" rx="4" fill="#21262d"/><rect x="25" y="125" width="69.8" height="8" rx="4" fill="#f7523f"/><text x="25" y="151" fill="#c9d1d9" font-size="12">TypeScript</text><text x="375" y="151" fill="#8b949e" font-size="12" text-anchor="end">7.4%</text><rect x="25" y="157" width="350" height="8" rx="4" fill="#21262d"/><rect x="25" y="157" width="25.9" height="8" rx="4" fill="#3178c6"/><text x="25" y="183" fill="#c9d1d9" font-size="12">Vue</text><text x="375" y="183" fill="#8b949e" font-size="12" text-anchor="end">5.2%</text><rect x="25" y="189" width="350" height="8" rx="4" fill="#21262d"/><rect x="25" y="189" width="18.2" height="8" rx="4" fill="#41b883"/><text x="25" y="215" fill="#c9d1d9" font-size="12">HTML</text><text x="375" y="215" fill="#8b949e" font-size="12" text-anchor="end">4.3%</text><rect x="25" y="221" width="350" height="8" rx="4" fill="#21262d"/><rect x="25" y="221" width="14.9" height="8" rx="4" fill="#e34c26"/></svg>